<?xml version="1.0" encoding="UTF-8" standalone="no"?>
<svg
   width="200mm"
   height="200mm"
   viewBox="0 0 200 200"
   version="1.1"
   id="svg1"
   xml:space="preserve"
   xmlns="http://www.w3.org/2000/svg"
   xmlns:svg="http://www.w3.org/2000/svg"><defs
     id="defs1" /><rect
     style="fill:#d40000;stroke-width:0.264583"
     id="rect1"
     width="200"
     height="200"
     x="-5.5511151e-17"
     y="-2.220446e-16"
     ry="30" /><g
     id="layer1"
     transform="matrix(0.90302554,0,0,0.90302554,9.6465898,9.8372576)"><path
       id="path3"
       style="display:inline;fill:#ffffff"
       d="M 11.570053,42.114298 61.519459,154.3441 c 0,0 31.699702,-70.928275 47.549541,-106.392432 11.84456,0.612444 27.67757,6.522593 35.10603,14.708313 7.42846,8.18572 7.00961,18.276742 6.11475,23.798991 -0.89486,5.522249 -5.61154,17.008658 -16.83791,25.351178 -11.22637,8.34252 -31.82547,13.65693 -41.131707,15.04822 l -15.821556,33.90061 c 5.452944,-0.006 11.052346,-0.003 16.515053,0.0102 2.625931,-4.52084 9.21038,-12.53664 16.25352,-17.1504 7.04314,-4.61376 16.16578,-8.72145 24.41169,-12.76115 3.10868,0.89331 6.21736,1.78663 9.32604,2.67994 -6.30416,3.9908 -11.14285,6.69806 -19.28435,11.33441 -8.1415,4.63635 -12.67042,9.54235 -15.61158,15.8877 6.18924,-0.004 6.35668,1.2e-4 14.86561,0.004 17.62492,-1.87195 30.90055,-8.9506 40.63825,-17.15859 20.01035,-16.9191 25.18304,-41.9483 23.45909,-57.923859 -4.51303,-31.31666 -31.60149,-40.856456 -51.54492,-43.564244 -17.43981,0.0012 -50.456238,-0.0025 -50.456238,-0.0025 L 60.790304,98.209552 36.40949,42.115975 Z M 141.74328,49.00889 c 4.96431,1.433996 9.75134,3.490958 14.08286,6.322612 -3.08121,0.292813 -3.06924,0.313771 -3.06924,0.313771 -4.06432,-2.522292 -8.28509,-4.041783 -12.54118,-6.245192 z m 20.15122,13.10566 c 4.98011,4.265128 8.01125,11.726364 8.477,18.25625 -1.82556,-0.01568 -3.65111,-0.03135 -5.47667,-0.04703 -0.0317,-6.622854 -2.98226,-12.483924 -6.54116,-17.85024 0,0 1.75098,-0.172221 3.54083,-0.35898 z m 8.76381,27.190589 c -0.51367,7.517542 -3.2414,24.082391 -16.92248,34.817991 l -8.3721,-2.4288 c 10.29655,-7.56329 16.28989,-12.45902 19.57865,-32.376272 1.90531,-0.0043 3.81062,-0.0086 5.71593,-0.01292 z" /></g></svg>
